Coordinates
version=1
nRows=60
nColumns=12
inDegrees=yes

Units are S.I. units (second, meters, Newtons, ...)
Angles are in degrees

endheader
time	SC_y	SC_z	SC_x	AC_y	AC_z	AC_x	GH_y	GH_z	GH_yy	EL_x	PS_y
       0.0              -12.78          31.12          36.61          34.98         -13.68          17.77         -174.1           78.9         -71.17          86.16          86.77
   0.03822              -12.78          31.12          36.61          34.98         -13.68          17.76         -174.1          78.89         -71.18          86.15          86.77
   0.07645              -12.79          31.12          36.61          34.98         -13.68          17.76         -174.0          78.88         -71.18          86.14          86.76
    0.1147              -12.79          31.12          36.62          34.98         -13.68          17.75         -174.0          78.87         -71.19          86.13          86.76
    0.1529              -12.79          31.12          36.62          34.98         -13.67          17.75         -173.9          78.86         -71.21          86.11          86.75
    0.1911               -12.8          31.12          36.63          34.98         -13.67          17.74         -173.9          78.85         -71.22           86.1          86.75
    0.2293               -12.8          31.12          36.63          34.98         -13.67          17.73         -173.8          78.84         -71.23          86.08          86.74
    0.2676              -12.81          31.12          36.63          34.99         -13.67          17.73         -173.8          78.83         -71.24          86.07          86.73
    0.3058              -12.81          31.13          36.64          34.99         -13.67          17.72         -173.7          78.81         -71.26          86.05          86.73
     0.344              -12.82          31.13          36.64          34.99         -13.66          17.71         -173.6           78.8         -71.27          86.03          86.72
    0.3822              -12.83          31.13          36.65          34.99         -13.66           17.7         -173.6          78.78         -71.29          86.01          86.71
    0.4205              -12.83          31.13          36.66          34.99         -13.66          17.69         -173.5          78.77          -71.3          85.99           86.7
    0.4587              -12.84          31.13          36.66          34.99         -13.66          17.68         -173.4          78.75         -71.32          85.96          86.69
    0.4969              -12.85          31.14          36.67          34.99         -13.65          17.67         -173.3          78.73         -71.34          85.94          86.68
    0.5351              -12.86          31.14          36.68          34.99         -13.65          17.66         -173.2          78.71         -71.36          85.91          86.67
    0.5734              -12.87          31.14          36.68           35.0         -13.65          17.65         -173.1          78.68         -71.39          85.88          86.66
    0.6116              -12.88          31.15          36.69           35.0         -13.64          17.63         -172.9          78.66         -71.41          85.85          86.65
    0.6498              -12.89          31.15           36.7           35.0         -13.64          17.62         -172.8          78.63         -71.44          85.81          86.64
     0.688               -12.9          31.15          36.71           35.0         -13.63           17.6         -172.7           78.6         -71.47          85.77          86.62
    0.7262              -12.91          31.16          36.72           35.0         -13.63          17.58         -172.5          78.57         -71.51          85.73           86.6
    0.7645              -12.93          31.16          36.74          35.01         -13.62          17.56         -172.3          78.53         -71.54          85.68          86.59
    0.8027              -12.94          31.17          36.75          35.01         -13.61          17.54         -172.1          78.49         -71.58          85.63          86.57
    0.8409              -12.96          31.17          36.77          35.01         -13.61          17.51         -171.9          78.45         -71.63          85.57          86.54
    0.8791              -12.98          31.18          36.78          35.02          -13.6          17.48         -171.7           78.4         -71.68          85.51          86.52
    0.9174               -13.0          31.18           36.8          35.02         -13.59          17.45         -171.4          78.35         -71.73          85.44          86.49
    0.9556              -13.03          31.19          36.82          35.02         -13.58          17.42         -171.1          78.29         -71.79          85.36          86.46
    0.9938              -13.05           31.2          36.85          35.03         -13.57          17.38         -170.8          78.22         -71.86          85.27          86.43
     1.032              -13.08          31.21          36.87          35.04         -13.56          17.34         -170.4          78.15         -71.94          85.18          86.39
      1.07              -13.12          31.22           36.9          35.04         -13.54          17.29         -170.0          78.06         -72.03          85.06          86.35
     1.108              -13.16          31.23          36.94          35.05         -13.53          17.24         -169.5          77.97         -72.12          84.94           86.3
     1.147               -13.2          31.25          36.98          35.06         -13.51          17.17         -169.0          77.86         -72.24          84.79          86.24
     1.185              -13.25          31.26          37.02          35.07         -13.49           17.1         -168.3          77.73         -72.37          84.63          86.18
     1.223              -13.31          31.28          37.07          35.08         -13.47          17.02         -167.6          77.58         -72.52          84.43          86.11
     1.261              -13.38           31.3          37.13          35.09         -13.44          16.92         -166.8          77.41         -72.69          84.21          86.02
       1.3              -13.46          31.33           37.2           35.1         -13.41          16.81         -165.8          77.21         -72.89          83.95          85.92
     1.338              -13.56          31.36          37.28          35.12         -13.37          16.67         -164.6          76.98         -73.13          83.64           85.8
     1.376              -13.67          31.39          37.38          35.14         -13.32          16.51         -163.2           76.7         -73.42          83.28          85.66
     1.414               -13.8          31.43           37.5          35.17         -13.27          16.32         -161.6          76.37         -73.76          82.84           85.5
     1.452              -13.97          31.48          37.64           35.2          -13.2          16.09         -159.6          75.96         -74.18          82.31          85.29
     1.491              -14.17          31.55          37.81          35.23         -13.12          15.81         -157.1          75.47         -74.68          81.66          85.04
     1.529              -14.41          31.62          38.03          35.28         -13.02          15.47         -154.1          74.86          -75.3          80.86          84.74
     1.567              -14.72          31.72          38.29          35.33          -12.9          15.03         -150.4          74.11         -76.08          79.87          84.36
     1.605               -15.1          31.84          38.63           35.4         -12.74          14.49         -145.6          73.15         -77.06          78.61          83.87
     1.644               -15.6          31.99          39.05          35.49         -12.54          13.79         -139.6          71.93         -78.31          77.02          83.26
     1.682              -16.22          32.18           39.6          35.61         -12.29          12.91         -131.9          70.38          -79.9          74.97          82.48
      1.72              -17.03          32.44           40.3          35.75         -11.96          11.77         -122.0          68.38         -81.95          72.35          81.47
     1.758              -18.06          32.75           41.2          35.94         -11.55          10.31         -109.4          65.84         -84.56          69.01          80.19
     1.796              -19.36          33.16          42.32          36.18         -11.02          8.486         -93.51          62.63         -87.85           64.8          78.57
     1.835              -20.94          33.65          43.69          36.46         -10.39          6.258         -74.15          58.73         -91.85          59.67          76.61
     1.873              -22.77          34.22          45.28           36.8         -9.647          3.675         -51.71           54.2         -96.49          53.72          74.32
     1.911              -24.75          34.83           47.0          37.16         -8.847         0.8786         -27.42           49.3         -101.5          47.29          71.85
     1.949              -26.73          35.45          48.73          37.52         -8.046         -1.918          -3.13           44.4         -106.5          40.85          69.38
     1.988              -28.56          36.01          50.32          37.85         -7.307         -4.501           19.3          39.87         -111.2           34.9           67.1
     2.026              -30.14           36.5          51.69          38.14         -6.669         -6.729          38.66          35.96         -115.2          29.77          65.14
     2.064              -31.43          36.91          52.81          38.37         -6.146         -8.558          54.54          32.76         -118.5          25.56          63.52
     2.102              -32.46          37.23          53.71          38.56          -5.73         -10.01          67.17          30.21         -121.1          22.22          62.24
     2.141              -33.27          37.48          54.41          38.71         -5.404         -11.15          77.06          28.22         -123.1           19.6          61.23
     2.179               -33.9          37.67          54.95          38.82          -5.15         -12.04          84.77          26.66         -124.7          17.55          60.45
     2.217              -34.39          37.82          55.38          38.91         -4.952         -12.73          90.79          25.45         -126.0          15.96          59.84
     2.255              -34.78          37.94          55.72          38.98         -4.796         -13.28          95.53          24.49         -127.0           14.7          59.35
